<?xml version="1.0" encoding="UTF-8" standalone="no"?><!DOCTYPE svg PUBLIC "-//W3C//DTD SVG 1.1//EN" "http://www.w3.org/Graphics/SVG/1.1/DTD/svg11.dtd"><svg width="100%" height="100%" viewBox="0 0 1024 1024" version="1.1" xmlns="http://www.w3.org/2000/svg" xmlns:xlink="http://www.w3.org/1999/xlink" xml:space="preserve" style="fill-rule:evenodd;clip-rule:evenodd;stroke-linejoin:round;stroke-miterlimit:2;"><rect id="Tilted" x="0" y="0" width="1024" height="1024" style="fill:none;"/><g id="Icon"><path d="M934.247,256.351l56.233,376.915c12.936,86.706 -46.956,167.602 -133.662,180.538l-586.527,87.506c-86.705,12.936 -167.602,-46.956 -180.538,-133.661l-56.233,-376.915c-12.936,-86.706 46.956,-167.602 133.662,-180.538l586.527,-87.506c86.705,-12.936 167.602,46.956 180.538,133.661Z" style="fill:url(#_Radial1);"/><path d="M954.107,244.327l58.878,394.643c13.544,90.784 -49.164,175.485 -139.948,189.03l-614.114,91.621c-90.784,13.545 -175.486,-49.164 -189.03,-139.948l-58.878,-394.643c-13.544,-90.784 49.164,-175.485 139.948,-189.03l614.114,-91.621c90.784,-13.545 175.486,49.164 189.03,139.948Zm-64.289,9.592c-8.25,-55.303 -59.847,-93.502 -115.149,-85.252l-614.114,91.622c-55.302,8.251 -93.502,59.847 -85.251,115.15l58.878,394.642c8.25,55.303 59.847,93.502 115.149,85.252l614.114,-91.622c55.302,-8.251 93.502,-59.847 85.251,-115.15l-58.878,-394.642Z" style="fill:#fff;"/><g><path d="M275.044,720.901l5.594,37.494c1.58,10.593 -5.737,20.476 -16.33,22.057l-37.311,5.566c-10.593,1.581 -20.477,-5.737 -22.057,-16.33l-5.594,-37.494c-1.58,-10.593 5.737,-20.476 16.33,-22.057l37.311,-5.566c10.593,-1.581 20.476,5.736 22.057,16.33Z" style="fill:#fff;"/><path d="M256.293,595.223l5.594,37.494c1.581,10.593 -5.736,20.476 -16.329,22.057l-37.311,5.566c-10.593,1.581 -20.477,-5.736 -22.057,-16.329l-5.594,-37.495c-1.58,-10.593 5.737,-20.476 16.33,-22.056l37.311,-5.567c10.593,-1.58 20.476,5.737 22.056,16.33Z" style="fill:#fff;"/><path d="M237.543,469.545l5.594,37.494c1.581,10.593 -5.737,20.477 -16.33,22.057l-37.311,5.567c-10.593,1.58 -20.476,-5.737 -22.056,-16.33l-5.594,-37.494c-1.581,-10.593 5.736,-20.477 16.33,-22.057l37.31,-5.567c10.593,-1.58 20.477,5.737 22.057,16.33Z" style="fill:#fff;"/><path d="M218.793,343.867l5.594,37.495c1.58,10.593 -5.737,20.476 -16.33,22.056l-37.311,5.567c-10.593,1.58 -20.476,-5.737 -22.057,-16.33l-5.594,-37.494c-1.58,-10.593 5.737,-20.476 16.33,-22.057l37.311,-5.566c10.593,-1.581 20.477,5.736 22.057,16.329Z" style="fill:#fff;"/></g><g><path d="M875.528,631.312l5.594,37.495c1.58,10.593 -5.737,20.476 -16.33,22.056l-37.311,5.567c-10.593,1.58 -20.476,-5.737 -22.057,-16.33l-5.594,-37.494c-1.58,-10.593 5.737,-20.476 16.33,-22.057l37.311,-5.566c10.593,-1.581 20.477,5.736 22.057,16.329Z" style="fill:#fff;"/><path d="M856.778,505.635l5.594,37.494c1.58,10.593 -5.737,20.476 -16.33,22.057l-37.311,5.566c-10.593,1.581 -20.477,-5.736 -22.057,-16.33l-5.594,-37.494c-1.58,-10.593 5.737,-20.476 16.33,-22.057l37.311,-5.566c10.593,-1.581 20.476,5.737 22.057,16.33Z" style="fill:#fff;"/><path d="M838.027,379.957l5.594,37.494c1.581,10.593 -5.736,20.477 -16.329,22.057l-37.311,5.567c-10.593,1.58 -20.477,-5.737 -22.057,-16.33l-5.594,-37.494c-1.58,-10.594 5.737,-20.477 16.33,-22.057l37.311,-5.567c10.593,-1.58 20.476,5.737 22.056,16.33Z" style="fill:#fff;"/><path d="M819.277,254.279l5.594,37.495c1.581,10.593 -5.737,20.476 -16.33,22.056l-37.311,5.567c-10.593,1.58 -20.476,-5.737 -22.056,-16.33l-5.594,-37.494c-1.581,-10.593 5.736,-20.477 16.329,-22.057l37.311,-5.567c10.593,-1.58 20.477,5.737 22.057,16.33Z" style="fill:#fff;"/></g><path d="M637.107,464.222c11.129,4.276 19.097,14.209 20.857,26.001c1.759,11.792 -2.963,23.619 -12.359,30.957c-49.295,38.496 -126.949,99.137 -175.71,137.216c-9.275,7.243 -21.7,9.014 -32.629,4.651c-10.93,-4.364 -18.718,-14.204 -20.455,-25.844c-9.041,-60.597 -23.359,-156.572 -32.4,-217.169c-1.737,-11.64 2.841,-23.325 12.02,-30.689c9.18,-7.364 21.581,-9.296 32.566,-5.076c57.753,22.188 149.725,57.522 208.11,79.953Z" style="fill:#fff;"/></g><defs><radialGradient id="_Radial1" cx="0" cy="0" r="1" gradientUnits="userSpaceOnUse" gradientTransform="matrix(-727.111,-361.252,359.904,-728.54,935.677,727.338)"><stop offset="0" style="stop-color:#b554ff;stop-opacity:1"/><stop offset="0.58" style="stop-color:#a665ff;stop-opacity:1"/><stop offset="0.8" style="stop-color:#878aff;stop-opacity:1"/><stop offset="1" style="stop-color:#68aeff;stop-opacity:1"/></radialGradient></defs></svg>